<?xml version="1.0" encoding="utf-8"?>
<!-- Generator: Adobe Illustrator 18.1.1, SVG Export Plug-In . SVG Version: 6.00 Build 0)  -->
<svg version="1.1" id="Layer_1" xmlns="http://www.w3.org/2000/svg" xmlns:xlink="http://www.w3.org/1999/xlink" x="0px" y="0px"
	 viewBox="216 306 180 180" enable-background="new 216 306 180 180" xml:space="preserve">
<path fill="#0D8944" d="M281.8,405.5c9.5-9.4,22.4-15.2,36.7-15.3c29.1-0.2,52.8,24,52.8,53.1V477c0,2.6-2.1,4.7-4.7,4.7h-20.5
	c-2.6,0-4.7-2.1-4.7-4.7v-11.8c-6.2,4.2-13.8,6.7-21.8,6.7c-7.9,0-15.2-2.4-21.5-6.4V477c0,2.6-2.1,4.7-4.7,4.7h-22.2
	c-2.6,0-4.7-2.1-4.7-4.7V359.6h-10.3c-8.6,0-15.5-6.9-15.5-15.5s6.9-15.5,15.5-15.5h10.3c8.6,0,15.5,6.9,15.5,15.5v61.3"/>
<g>
	<circle fill="#FFFFFF" cx="266.1" cy="344.1" r="6.4"/>
	<circle cx="266.1" cy="344.1" r="1.3"/>
</g>
<path opacity="0.15" enable-background="new    " d="M371.4,442.8V477c0,2.6-2.1,4.7-4.7,4.7h-20.5c-2.6,0-4.7-2.1-4.7-4.7v-11.8
	c-6.2,4.2-13.8,6.7-21.8,6.7c-7.9,0-15.2-2.4-21.5-6.4V477c0,2.6-2.1,4.7-4.7,4.7h-22.3c-2.6,0-4.7-2.1-4.7-4.7v-34.2H371.4z"/>
</svg>
