<?xml version="1.0" encoding="utf-8"?>
<!-- Generator: Adobe Illustrator 18.1.1, SVG Export Plug-In . SVG Version: 6.00 Build 0)  -->
<svg version="1.1" id="Layer_1" xmlns="http://www.w3.org/2000/svg" xmlns:xlink="http://www.w3.org/1999/xlink" x="0px" y="0px"
	 viewBox="216 306 180 180" enable-background="new 216 306 180 180" xml:space="preserve">
<path fill="#F7C015" d="M316.1,461.9c0,5.6-4.6,10.2-10.2,10.2s-10.2-4.6-10.2-10.2v10.8h-7.4c0-40-32.4-72.4-72.4-72.4v-5.3h86.1
	v-12.7c-6.9-1.5-12.3-7.5-12.9-14.7c-0.1-1.7,0-3.5,0.4-5.1c0.2-1.1,0.7-2.2,1.1-3.2l-63.4-12.9c-2.5-0.5-1.8-4.2,0.7-3.9
	l153.8,22.3c3.7,0.7,3.6,6-0.1,6.5L310,382.2l-0.1,12.9H396v5.3c-40,0-72.4,32.4-72.4,72.4h-7.5V461.9z"/>
<path opacity="0.15" enable-background="new    " d="M306,353.9l75.9,11c3.7,0.7,3.6,6-0.1,6.5l-71.8,10.8l-0.1,12.9h86.1v5.3
	c-40,0-72.4,32.4-72.4,72.4h-7.5v-10.8c0,5.6-4.6,10.2-10.2,10.2L306,353.9z"/>
<g>
	<circle fill="#FFFFFF" cx="305.9" cy="366.5" r="7.2"/>
	<circle cx="305.9" cy="366.5" r="1.5"/>
</g>
</svg>
