<?xml version="1.0" encoding="utf-8"?>
<!-- Generator: Adobe Illustrator 18.1.1, SVG Export Plug-In . SVG Version: 6.00 Build 0)  -->
<svg version="1.1" id="Layer_1" xmlns="http://www.w3.org/2000/svg" xmlns:xlink="http://www.w3.org/1999/xlink" x="0px" y="0px"
	 viewBox="216 306 180 180" enable-background="new 216 306 180 180" xml:space="preserve">
<path fill="#3458A7" d="M280.8,386.1c-0.4-0.1-0.9-0.2-1.3-0.2c-3.1,0-5.7,2.5-5.7,5.7c0,2.9,2.2,5.2,4.9,5.7l0,0l-5.5,28.6
	c-7.5,3.1-12.8,10.6-12.8,19.3c0,1.7,0.2,3.4,0.6,5l6.9,23.4c2,5.5,7.3,9.4,13.5,9.4c6.2,0,11.4-3.9,13.5-9.4l1.2-3.9
	c3,1,6.4,1.4,9.8,1.5c3.6,0,7.1-0.5,10.3-1.5l0,0l1.2,3.9c2,5.5,7.3,9.4,13.5,9.4c6.2,0,11.4-3.9,13.5-9.4l6.9-23.4
	c0.4-1.6,0.6-3.3,0.6-5c0-8.7-5.3-16.1-12.8-19.3h-0.1l-5.5-28.6l0,0c2.8-0.4,4.9-2.8,4.9-5.7c0-3.1-2.5-5.7-5.7-5.7
	c-0.4,0-0.9,0.1-1.3,0.2l0,0l-0.2-0.8c-1.2-6.4-4.2-11.2-8.3-14.6l14.5-4.8c14.1-6.3,14.1-26.3,0-32.7l-19.5-6.5
	c-3-1.2-6.4-1.8-9.9-1.7c-13.1,0.5-23.5,11.2-23.7,24.1c-0.1,7.5,3.2,14.4,8.5,18.9l0,0c-5.8,3.4-10.4,9.1-12,17.3L280.8,386.1"/>
<path opacity="0.15" enable-background="new    " d="M280.8,386.1l0.2-0.8c1.5-8.2,6.1-13.9,11.8-17.2l0,0
	c-5.3-4.6-8.6-11.4-8.5-18.9c0.3-12.2,9.5-22.3,21.3-24v145.9c-3.4,0-6.6-0.5-9.8-1.5l-1.2,3.9c-2,5.5-7.3,9.4-13.5,9.4
	c-6.2,0-11.4-3.9-13.5-9.4l-6.9-23.4c-0.4-1.6-0.6-3.3-0.6-5c0-8.7,5.3-16.1,12.8-19.3l5.5-28.6l0,0c-2.8-0.4-4.9-2.8-4.9-5.7
	c0-3.1,2.5-5.7,5.7-5.7C279.9,385.9,280.3,385.9,280.8,386.1"/>
<g>
	<circle fill="#FFFFFF" cx="305.6" cy="352.3" r="6.5"/>
	<circle cx="305.6" cy="352.3" r="1.3"/>
</g>
</svg>
