<?xml version="1.0" encoding="utf-8"?>
<!-- Generator: Adobe Illustrator 17.1.0, SVG Export Plug-In . SVG Version: 6.00 Build 0)  -->
<!DOCTYPE svg PUBLIC "-//W3C//DTD SVG 1.1//EN" "http://www.w3.org/Graphics/SVG/1.1/DTD/svg11.dtd">
<svg version="1.1" id="Layer_1" xmlns="http://www.w3.org/2000/svg" xmlns:xlink="http://www.w3.org/1999/xlink" x="0px" y="0px"
	 viewBox="0 0 180 180" enable-background="new 0 0 180 180" xml:space="preserve">
<path fill="#ED8223" d="M67.1,66.8c4.5-2.3,9.3-4,14.5-4.7l-8.2-11.9c-0.6-0.9-0.5-2,0.1-2.8l14.1-16.8c0.9-1.1,2.7-1.1,3.6,0
	l14.1,16.8c0.7,0.8,0.7,2,0.1,2.8l-8.3,12.1c5.2,1,10.2,2.8,14.6,5.3l0.5-12c0-0.9,0.7-1.6,1.5-1.8l17.9-4.1
	c1.2-0.3,2.3,0.6,2.4,1.8l1,18.3c0,0.9-0.5,1.7-1.3,2l-11.5,3.9l11.4,11.2l0-0.1l1.6-9.2c0.1-0.7,0.7-1.2,1.4-1.3l14.2-1.4
	c0.9-0.1,1.7,0.7,1.7,1.6l-1.1,14.3c-0.1,0.7-0.6,1.3-1.2,1.4L141,94c0,0,5.1,5,5.1,5c3.6-2.8,8.3-4.2,13.1-3.3
	c2.4,0.4,4.6,1.4,6.5,2.7l8.5,6.2c7.7,5.7,5.6,17.7-3.7,20.3l-10.1,2.8c-2.5,0.7-5.2,0.7-8,0.1c-3.1-0.7-5.7-2.3-7.8-4.4l-8.7-9
	v25.6c0,2.3-1.9,4.3-4.3,4.3h-20.1c-2.3,0-4.3-1.9-4.3-4.3v-10.4c-5.6,3.6-12.2,5.8-19.3,5.8c-7.3,0-14.1-2.2-19.7-6v10.7
	c0,2.3-1.9,4.3-4.3,4.3H45.4c-2.3,0-4.3-1.9-4.3-4.3v-15.3L6.3,143.5C4,144.7,1.7,142,3.3,140l13.3-16.7L6,122.6
	c-0.8-0.1-1.4-0.6-1.6-1.4l-3.3-16c-0.2-1.1,0.6-2.1,1.7-2.1l16.3-0.5c0.8,0,1.5,0.5,1.7,1.2l3.2,10.3l12.2-15.3L23.9,98
	c-0.9-0.1-1.6-0.7-1.8-1.6l-3.6-18.2c-0.2-1.2,0.7-2.3,1.9-2.4l18.6-0.5c0.9,0,1.7,0.6,1.9,1.4l3.6,11.8l8-9.9
	c0.9-1.1,1.8-2.1,2.8-3.1l-12.8-4.5c-0.9-0.3-1.5-1.2-1.5-2.2l1.3-20.5c0.1-1.4,1.4-2.3,2.7-2l20,4.8c1,0.2,1.6,1.1,1.7,2.1
	L67.1,66.8z"/>
<path fill="#065360" d="M146.1,99"/>
<g>
	<circle fill="#FFFFFF" cx="155.5" cy="111.3" r="7.3"/>
	<circle cx="155.5" cy="111.3" r="1.5"/>
</g>
<path fill="#065360" d="M146.1,124.7"/>
<path opacity="0.15" d="M89.4,135.2c-0.5,0-1,0-1.5,0c-7.3,0-14.1-2.2-19.7-6v10.7c0,2.3-1.9,4.3-4.3,4.3H45.4
	c-2.3,0-4.3-1.9-4.3-4.3v-15.3L6.3,143.5C4,144.7,1.7,142,3.3,140l13.3-16.7L6,122.6c-0.8-0.1-1.4-0.6-1.6-1.4l-3.3-16
	c-0.2-1.1,0.6-2.1,1.7-2.1l16.3-0.5c0.8,0,1.5,0.5,1.7,1.2l3.2,10.3l12.2-15.3L23.9,98c-0.9-0.1-1.6-0.7-1.8-1.6l-3.6-18.2
	c-0.2-1.2,0.7-2.3,1.9-2.4l18.6-0.5c0.9,0,1.7,0.6,1.9,1.4l3.6,11.8l8-9.9c0.9-1.1,1.8-2.1,2.8-3.1l-12.8-4.5
	c-0.9-0.3-1.5-1.2-1.5-2.2l1.3-20.5c0.1-1.4,1.4-2.3,2.7-2l20,4.8c1,0.2,1.6,1.1,1.7,2.1l0.4,13.5c4.5-2.3,9.3-4,14.5-4.7l-8.2-11.9
	c-0.6-0.9-0.5-2,0.1-2.8l14.1-16.8c0.5-0.6,1.1-0.8,1.8-0.8L89.4,135.2z"/>
</svg>
