<?xml version="1.0" encoding="utf-8"?>
<!-- Generator: Adobe Illustrator 17.1.0, SVG Export Plug-In . SVG Version: 6.00 Build 0)  -->
<!DOCTYPE svg PUBLIC "-//W3C//DTD SVG 1.1//EN" "http://www.w3.org/Graphics/SVG/1.1/DTD/svg11.dtd">
<svg version="1.1" id="Layer_1" xmlns="http://www.w3.org/2000/svg" xmlns:xlink="http://www.w3.org/1999/xlink" x="0px" y="0px"
	 viewBox="0 0 180 180" enable-background="new 0 0 180 180" xml:space="preserve">
<path fill="#4C2E8E" d="M95.9,61.8c-4.1-18.3-20.8-32-40.7-32v27.5L28.4,43.5c-3.3-1.7-6.3,2.8-3.3,5l22.8,17.3h-3.3
	c-9.3,0-17.2,4.5-23.1,10.6l-11.1-4.1c-1.2-0.4-2.2,1-1.3,2l8.2,8.8c-1.4,3.4-2.4,7-2.6,10.8c0,0.7,0.5,1.3,1.2,1.3l11.6,0
	c2.6,9.3,11.2,16.2,21.3,16.2h6.5c3.2,0,6.4-0.4,9.4-1v35.1c0,2.6,2.1,4.8,4.8,4.8h22.7c2.6,0,4.8-2.1,4.8-4.8v-11.8
	c6.3,4.1,13.7,6.5,21.8,6.5c8.2,0,15.9-2.5,22.2-6.8v12.1c0,2.6,2.1,4.8,4.8,4.8h20.9c2.6,0,4.8-2.1,4.8-4.8V111
	c0-29.6-24.2-54.2-53.8-54C109.8,57.1,102.5,58.8,95.9,61.8"/>
<path opacity="0.15" d="M171.3,113.7v31.7c0,2.6-2.1,4.8-4.8,4.8h-20.9c-2.6,0-4.8-2.1-4.8-4.8v-12.1c-6.3,4.3-14,6.8-22.2,6.8
	c-8,0-15.5-2.4-21.8-6.5v11.8c0,2.6-2.1,4.8-4.8,4.8H69.4c-2.6,0-4.8-2.1-4.8-4.8v-31.7L171.3,113.7z"/>
<g>
	<circle fill="#FFFFFF" cx="46.5" cy="91.5" r="7.3"/>
	<circle cx="46.5" cy="91.5" r="1.5"/>
</g>
<path fill="#4C2E8E" d="M95.9,61.8c-4.1-18.3-20.8-32-40.7-32v27.5L28.4,43.5c-3.3-1.7-6.3,2.8-3.3,5l22.8,17.3h-3.3
	c-9.3,0-17.2,4.5-23.1,10.6l-11.1-4.1c-1.2-0.4-2.2,1-1.3,2l8.2,8.8c-1.4,3.4-2.4,7-2.6,10.8c0,0.7,0.5,1.3,1.2,1.3l11.6,0
	c2.6,9.3,11.2,16.2,21.3,16.2h6.5c3.2,0,6.4-0.4,9.4-1v35.1c0,2.6,2.1,4.8,4.8,4.8h22.7c2.6,0,4.8-2.1,4.8-4.8v-11.8
	c6.3,4.1,13.7,6.5,21.8,6.5c8.2,0,15.9-2.5,22.2-6.8v12.1c0,2.6,2.1,4.8,4.8,4.8h20.9c2.6,0,4.8-2.1,4.8-4.8V111
	c0-29.6-24.2-54.2-53.8-54C109.8,57.1,102.5,58.8,95.9,61.8"/>
<path opacity="0.15" d="M171.3,113.7v31.7c0,2.6-2.1,4.8-4.8,4.8h-20.9c-2.6,0-4.8-2.1-4.8-4.8v-12.1c-6.3,4.3-14,6.8-22.2,6.8
	c-8,0-15.5-2.4-21.8-6.5v11.8c0,2.6-2.1,4.8-4.8,4.8H69.4c-2.6,0-4.8-2.1-4.8-4.8v-31.7L171.3,113.7z"/>
<g>
	<circle fill="#FFFFFF" cx="46.5" cy="91.5" r="7.3"/>
	<circle cx="46.5" cy="91.5" r="1.5"/>
</g>
</svg>
